<svg width="47" height="29" viewBox="0 0 47 29" fill="none" xmlns="http://www.w3.org/2000/svg">
<path d="M31.7605 0H21.789C20.2978 -3.39913e-06 20.3466 0.594041 20.472 1.78212L33.2657 14.581C29.4401 18.5773 21.5256 26.7642 20.472 27.5419C19.4184 28.3196 20.911 28.838 21.789 29H31.7605L47 14.581L31.7605 0Z" fill="#f3bc18"/>
<path d="M11.6509 0H1.67937C0.188142 -3.39913e-06 0.236946 0.594041 0.362378 1.78212L13.156 14.581C9.33048 18.5773 1.41597 26.7642 0.362378 27.5419C-0.691216 28.3196 0.801376 28.838 1.67937 29H11.6509L26.8904 14.581L11.6509 0Z" fill="#f3bc18"/>
</svg>
